<?xml version="1.0" encoding="utf-8"?>
<!-- Generator: Adobe Illustrator 23.1.0, SVG Export Plug-In . SVG Version: 6.00 Build 0)  -->
<svg version="1.1" id="Capa_1" xmlns="http://www.w3.org/2000/svg" xmlns:xlink="http://www.w3.org/1999/xlink" x="0px" y="0px"
	 viewBox="0 0 512 512" style="enable-background:new 0 0 512 512;" xml:space="preserve">
<style type="text/css">
	.st0{opacity:0.35;}
</style>
<g class="st0">
	<path d="M399.7,228.4v-8c0-4.1-3.4-7.5-7.5-7.5s-7.5,3.4-7.5,7.5v8c0,4.1,3.4,7.5,7.5,7.5S399.7,232.6,399.7,228.4z"/>
	<path d="M449.2,110.5c1.6,0.2,3.2,0.3,4.8,0.3c12.6,0,25.7-4.7,36.4-13.4c14.4-11.7,22.7-29.3,21.5-45.8c-0.2-3.1-2.4-5.8-5.4-6.7
		c-16-4.5-34.9-0.1-49.3,11.6c-6.2,5-11.2,11.1-14.8,17.6c-1.3-8-2.3-15.8-3.1-23.3c-0.4-4.1-4.1-7.1-8.2-6.7
		c-4.1,0.4-7.1,4.1-6.7,8.2c2.2,21.2,6.5,44.7,11.7,68.3c-7.6-5.3-16.7-9.1-26.5-10.6c-19.2-3-38.7,2.9-50.7,15.4
		c-2.2,2.3-2.7,5.7-1.3,8.5c7.6,15.6,24.4,27.2,43.6,30.2c3.3,0.5,6.7,0.8,10,0.8c12.2,0,23.9-3.5,33.2-9.8
		c6.2,24.2,12.8,47.4,18.8,67L437.8,207c-5.1-15.2-19.4-26.1-36.2-26.1c-21.7,0-42.3,7.8-58.4,22.1L119.6,94.8
		c-2.3-1.1-5.1-1-7.3,0.4c-2.2,1.4-3.5,3.8-3.5,6.4c0,1.4,0.4,28.4,12.4,55.5L10,117.2c-2.7-1-5.6-0.3-7.7,1.6
		c-2.1,1.9-2.8,4.9-2,7.6c0.4,1.5,10.8,36,38.6,67.9c4.3,4.9,9.1,9.8,14.4,14.7c7.1,21.1,24.7,58.8,62.1,75.2
		c9.8,4.3,20.4,6.9,31.6,7.9c4.9,7.5,21.3,29.4,48.8,34c3.4,0.6,6.9,0.9,10.3,0.9c20.1,0,41.2-9.6,62.7-28.8
		c3.1-2.8,3.4-7.5,0.6-10.6s-7.5-3.4-10.6-0.6c-21.6,19.2-41.9,27.4-60.4,24.3c-14.8-2.4-25.8-11.8-32.5-19.2
		c18.7-1.4,39.1-7,60.9-16.7c3.8-1.7,5.5-6.1,3.8-9.9s-6.1-5.5-9.9-3.8c-39.4,17.5-72.8,20.5-99.3,8.8
		c-21.6-9.5-35.6-27.5-44.4-43.9c26.4,15.7,61.9,25.5,108,17.3c4.1-0.7,6.8-4.6,6.1-8.7c-0.7-4.1-4.6-6.8-8.7-6.1
		c-53.5,9.5-97.9-5.4-132-44.2c-15.1-17.2-24.8-35.6-30.2-48l282.8,101.5c11.4,4.1,24.4,1.2,33-7.4l13.7-13.7
		c13.8-13.8,32.2-21.4,51.7-21.4c12.8,0,23.2,10.4,23.2,23.2v0.5c0,12-7.2,22.7-18.4,27.2c-12.7,5.1-22.1,15.6-26.1,28.8
		c-17.2,58.3-44.7,95.8-81.7,111.5c-16.3,6.9-60.7,19.4-121.7-12.6c-7.3-3.8-16.1-3.5-23.2,0.9l-62.3,38.5
		c-2.2-6.3-3.7-13.7-4.3-22.1c-0.3-3.6,1.7-7,5-8.4l78.7-35.8c3.8-1.7,5.4-6.2,3.7-9.9s-6.2-5.4-9.9-3.7L86,369.6
		c-8.9,4-14.4,13.4-13.7,23.2c0.9,12.9,4.5,31.6,16.6,47.4c14.6,19.1,37.1,28.7,66.9,28.7c0.7,0,1.4,0,2.1,0
		c8.9-0.1,16.8-5.1,20.8-13l26.7-53.5c14.7,4.6,31.9,8.1,50.2,8.1c15.8,0,32.5-2.6,48.9-9.6c41.3-17.5,71.7-58.2,90.2-121
		c2.6-8.8,8.9-15.8,17.3-19.2c5.3-2.1,10-5.2,14-8.9l44-7.3c6.3,19.8,10.8,32.9,11.4,34.5c1.1,3.1,4,5,7.1,5c0.8,0,1.7-0.1,2.5-0.4
		c3.9-1.4,6-5.6,4.6-9.6C495.1,273,465.9,189.1,449.2,110.5L449.2,110.5z M466.6,68.2c9-7.3,20.1-10.9,30.2-9.9
		c-1.1,10-6.9,20.2-15.9,27.5c-9,7.3-20.1,10.9-30.2,9.9C451.8,85.6,457.6,75.5,466.6,68.2z M403.3,149.3
		c-12.3-1.9-23.2-8.3-29.6-17.2c8.8-6.4,21-9.2,33.4-7.3c12.3,1.9,23.2,8.3,29.6,17.2C428,148.4,415.7,151.2,403.3,149.3z
		 M308.3,224.2l-165.9-59.6c-11.3-17.4-15.7-37.8-17.4-50.7l206.8,100.1l-6.2,6.2C321,224.9,314.3,226.4,308.3,224.2z M98,427.3
		l63.6-39.3c2.6-1.6,5.7-1.7,8.3-0.4c0,0,0.1,0,0.1,0l-50.2,58.7C111.6,442.4,103.9,436.3,98,427.3L98,427.3z M165.3,449.1
		c-1.4,2.8-4.4,4.7-7.6,4.8c-6.6,0.1-14.5-0.4-22.6-2.2l49-57.2c2.2,1,4.6,1.9,7.1,2.9L165.3,449.1z M437.1,234.7
		c1.1-3,1.8-6.1,2.3-9.3l11.6,7L437.1,234.7z"/>
</g>
</svg>
