<?xml version="1.0" encoding="utf-8"?>
<!-- Generator: Adobe Illustrator 23.1.0, SVG Export Plug-In . SVG Version: 6.00 Build 0)  -->
<svg version="1.1" xmlns="http://www.w3.org/2000/svg" xmlns:xlink="http://www.w3.org/1999/xlink" x="0px" y="0px"
	 viewBox="0 0 500 500" style="enable-background:new 0 0 500 500;" xml:space="preserve">
<style type="text/css">
	.st0{fill:#070707;}
	.st1{fill:#F9F9F9;}
	.st2{font-family:'MyriadPro-Regular';}
	.st3{font-size:12px;}
	.st4{fill:#FFFFFF;}
	.st5{font-family:'Aileron-Heavy';}
	.st6{font-size:102.2046px;}
	.st7{fill:none;stroke:#F9F9F9;stroke-width:8;stroke-miterlimit:10;}
	.st8{font-size:154px;}
</style>
<g id="Layer_3">
	<g>
		<rect x="3.5" y="2.5" class="st0" width="496" height="497"/>
		<path d="M498,4v494H5V4H498 M501,1H2v500h499V1L501,1z"/>
	</g>
</g>
<g id="Layer_1">
	<g>
		<path class="st1" d="M418,135.3v299.4H97V135.3H418 M426,127.3H89v315.4h337V127.3L426,127.3z"/>
	</g>
	<text transform="matrix(1 0 0 1 224.1611 247.9678)" class="st2 st3">Lorem ipsum</text>
	<text transform="matrix(1 0 0 1 153.1328 251.8086)" class="st4 st5 st6">LAR</text>
	<rect x="89" y="12" class="st4" width="9" height="116"/>
	<rect x="60" y="40" class="st4" width="70" height="9"/>
	
		<rect x="160.7" y="110.6" transform="matrix(0.9932 0.1165 -0.1165 0.9932 14.9697 -29.9393)" class="st4" width="205.7" height="5"/>
	
		<rect x="142.9" y="118.5" transform="matrix(0.9932 0.1165 -0.1165 0.9932 15.6451 -25.6997)" class="st4" width="169.6" height="5"/>
</g>
<g id="Layer_2">
	<polygon class="st7" points="112,126.2 187.3,91 423.5,128 	"/>
	<text transform="matrix(1 0 0 1 154.2905 384.7422)" class="st4 st5 st8">RY</text>
</g>
</svg>
