<?xml version="1.0" encoding="utf-8"?>
<!-- Generator: Adobe Illustrator 23.1.0, SVG Export Plug-In . SVG Version: 6.00 Build 0)  -->
<svg version="1.1" id="Capa_1" xmlns="http://www.w3.org/2000/svg" xmlns:xlink="http://www.w3.org/1999/xlink" x="0px" y="0px"
	 viewBox="0 0 512 512" style="enable-background:new 0 0 512 512;" xml:space="preserve">
<style type="text/css">
	.st0{opacity:0.35;}
</style>
<g class="st0">
	<g>
		<g>
			<path d="M430.7,0H108.1C87.8,0,71.3,16.5,71.3,36.8v374.6c0,20.3,16.5,36.8,36.8,36.8h9V502c0,3.3,1.6,6.4,4.3,8.2
				c1.7,1.2,3.7,1.8,5.7,1.8c1.2,0,2.4-0.2,3.6-0.7l33.2-12.7l33.2,12.7c3.1,1.2,6.5,0.8,9.2-1.1c2.7-1.9,4.3-4.9,4.3-8.2v-53.8
				h220.1c5.5,0,10-4.5,10-10V10C440.7,4.5,436.2,0,430.7,0L430.7,0z M91.3,411.4V36.8c0-9.3,7.5-16.8,16.8-16.8h9v408.2h-9
				C98.8,428.2,91.3,420.7,91.3,411.4L91.3,411.4z M190.6,487.5l-23.2-8.9c-1.1-0.4-2.4-0.7-3.6-0.7s-2.4,0.2-3.6,0.7l-23.2,8.9
				v-39.3h53.5L190.6,487.5L190.6,487.5z M420.7,428.2H137.1V20h283.6V428.2z"/>
			<path d="M170.6,365.9c2.3,2.2,5.4,3.5,8.6,3.5h0c9.5,0,17.5,7.4,18.2,16.9c0.5,6.4,5.8,11.4,12.2,11.4h138.8
				c6.4,0,11.7-5,12.2-11.4c0.7-9.5,8.7-16.9,18.2-16.9h0c3.2,0,6.3-1.2,8.6-3.5c2.4-2.3,3.7-5.5,3.7-8.8V243.1c0-5.5-4.5-10-10-10
				s-10,4.5-10,10v107.1c-14,2.9-25.4,13.6-29.2,27.4H216.1c-3.8-13.8-15.1-24.5-29.2-27.4V98c14.1-2.9,25.4-13.6,29.2-27.5h125.7
				c3.7,13.8,15.1,24.5,29.2,27.5v54.7c0,5.5,4.5,10,10,10s10-4.5,10-10v-64c0-2.8-1.2-5.5-3.2-7.3c-2-1.9-4.8-2.8-7.6-2.6
				c-0.5,0-1,0.1-1.5,0.1c-10,0-18.2-8.2-18.2-18.2c0-5.5-4.5-10-10-10H207.4c-5.5,0-10,4.5-10,10c0,10.1-8.2,18.2-18.2,18.2
				c-0.5,0-1,0-1.5-0.1c-2.8-0.2-5.5,0.7-7.6,2.6c-2.1,1.9-3.2,4.6-3.2,7.3v268.5C166.9,360.5,168.2,363.7,170.6,365.9L170.6,365.9z
				"/>
			<path d="M390.2,194.3c-1.7-4-5.8-6.5-10.1-6.1c-4.3,0.4-7.9,3.5-8.8,7.7c-0.9,4,0.7,8.2,4.1,10.5c3.4,2.3,7.9,2.3,11.3,0
				C390.4,203.7,392,198.6,390.2,194.3L390.2,194.3z"/>
			<path d="M258.7,323.4h40.4c5.5,0,10-4.5,10-10v-79.5h28.6c5.5,0,10-4.5,10-10v-40.4c0-5.5-4.5-10-10-10h-28.6v-30.7
				c0-5.5-4.5-10-10-10h-40.4c-5.5,0-10,4.5-10,10v30.7h-28.6c-5.5,0-10,4.5-10,10v40.4c0,5.5,4.5,10,10,10h28.6v79.5
				C248.7,318.9,253.2,323.4,258.7,323.4z M230.1,213.9v-20.4h28.6c5.5,0,10-4.5,10-10v-30.7h20.4v30.7c0,5.5,4.5,10,10,10h28.6
				v20.4h-28.6c-5.5,0-10,4.5-10,10v79.5h-20.4v-79.5c0-5.5-4.5-10-10-10H230.1z"/>
		</g>
	</g>
</g>
</svg>
