<?xml version="1.0" encoding="utf-8"?>
<!-- Generator: Adobe Illustrator 23.1.0, SVG Export Plug-In . SVG Version: 6.00 Build 0)  -->
<svg version="1.1" xmlns="http://www.w3.org/2000/svg" xmlns:xlink="http://www.w3.org/1999/xlink" x="0px" y="0px"
	 viewBox="0 0 500 500" style="enable-background:new 0 0 500 500;" xml:space="preserve">
<style type="text/css">
	.st0{fill:#D8B871;}
	.st1{fill:#F9E2AF;}
	.st2{font-family:'AnandaBlack';}
	.st3{font-size:210.7297px;}
</style>
<g id="Layer_1">
	<g>
		<path class="st0" d="M420,420H88c-8.8,0-16-7.2-16-16V90c0-8.8,7.2-16,16-16H420c8.8,0,16,7.2,16,16v314
			C436,412.8,428.8,420,420,420z"/>
	</g>
</g>
<g id="Layer_2">
	<g>
		<path class="st1" d="M148.1,194.6c-6,2.2-12,5-18,8.2c-5.9,3.2-11.4,7-16.4,11.3c-5,4.3-9.4,9.1-13.1,14.5
			c-3.7,5.4-6.4,11.2-8,17.6c-0.4,2.2,0.1,4.2,1.4,5.9c1.3,1.7,2.9,3.1,4.7,4.1c1.8,1,3.6,1.7,5.3,2c1.8,0.3,2.8,0.1,3.3-0.5l0.4,0
			c-0.2-3.2,0.6-6.9,2.5-10.9c1.9-4.1,4.6-8.2,8.1-12.4c3.5-4.2,7.7-8.3,12.5-12.5c4.8-4.1,10.1-7.9,15.8-11.3
			c4-2.4,8.2-4.5,12.5-6.4c-2.4-4-4.8-7.3-6.5-11.3C151.1,193.5,149.6,194,148.1,194.6z"/>
		<path class="st1" d="M323.9,185.3c-1.1-1.4-2.3-2.7-3.8-4c-1.5-1.2-2.9-2.2-4.3-2.8c-1.4-0.6-2.3-0.6-2.7,0.1
			c-2.9,8.2-6.5,16.5-10.8,25c-4.3,8.5-9.2,16.8-14.5,25.1c-5.4,8.3-11.2,16.4-17.5,24.4c-6.3,8-12.9,15.6-19.7,22.8
			c-6.8,7.2-13.9,14-21.2,20.3c-7.3,6.3-14.6,11.9-22,16.9c-0.3-0.1-0.6-0.3-1-0.7c-0.4-0.4-0.6-1-0.7-1.7c0-0.6,0.5-2,1.4-4.1
			c0.9-2.1,2.2-4.7,3.8-7.7c1.6-3.1,3.5-6.5,5.6-10.4c2.1-3.8,4.3-7.8,6.7-11.9c3.1-5.4,6.4-11.2,9.8-17.2c3.4-6.1,6.8-12.1,10-18.2
			c3.3-6.1,6.4-11.9,9.3-17.6c2.9-5.7,5.3-10.8,7.3-15.4c0.5-1.4,0.2-2.9-1-4.7c-1.2-1.8-2.6-3.3-4.4-4.6c-1.8-1.3-3.6-2.2-5.6-2.6
			c-1.9-0.5-3.4,0-4.5,1.2l-0.4,0c0,0.2-0.1,0.6-0.2,1.3c-0.2,0.7-0.4,1.5-0.6,2.3c-0.3,0.8-0.5,1.6-0.8,2.2
			c-0.3,0.7-0.4,1.1-0.5,1.2c-2.9,6.5-5.9,12.6-8.9,18.4c-3,5.8-6,11.5-9.1,17.2l-0.4,0.3c-1.6,2.9-3.8,6.5-6.4,10.9
			c-2.6,4.4-5.6,9.1-8.7,14c-3.2,4.9-6.6,9.9-10.2,15c-3.6,5-7.3,9.7-10.9,13.9c-3.7,4.2-7.3,7.9-10.8,10.9c-3.5,3-6.8,5-9.8,5.8
			c-2.4,0.5-4.2,0.1-5.4-1.1c-1.2-1.2-1.8-3.1-1.9-5.6c-0.1-2.6,0.4-5.7,1.4-9.4c1-3.7,2.4-7.7,4.2-12.1c1.8-4.4,3.9-9,6.2-13.9
			c2.3-4.9,4.8-9.8,7.4-14.8c2.6-5,5.3-9.9,8-14.7c2.7-4.8,5.2-9.5,7.6-13.9c2.1-3.8,4-7.3,5.9-10.7c1.9-3.3,3.5-6.3,4.8-8.9
			c1.3-2.6,2.4-4.8,3.2-6.5c0.8-1.7,1.2-2.8,1.1-3.4c0-1.1-0.5-2.2-1.3-3.5c-0.9-1.3-2-2.5-3.4-3.6c-1.4-1.1-2.9-2.1-4.6-3
			c-1.7-0.9-3.3-1.4-4.9-1.5c-0.9-0.2-1.9-0.2-3-0.2c-1.1,0-2.1,0-3.2,0.1c-4.6,0.1-9.7,0.7-15.4,1.9c-4.3,0.9-8.7,2.1-13.1,3.6
			c1.6,4,4,7.3,6.5,11.3c1.8-0.8,3.6-1.5,5.4-2.2c6.3-2.3,12.7-3.8,19.1-4.6c0.7,0.1,1.1,0.7,1,1.9c0,1.2-0.4,2.2-1.1,3
			c-5.4,8.1-10.7,16.5-15.9,25.2c-5.2,8.7-10,17.3-14.3,25.7c-4.4,8.4-8.1,16.4-11.2,23.9c-3.1,7.5-5.3,14-6.5,19.5
			c-0.2,1.1-0.3,2.2-0.4,3.2c-0.1,1.1-0.2,2.2-0.1,3.2c0,2.5,0.5,4.9,1.2,7.1c0.8,2.2,1.9,4.1,3.3,5.8c1.5,1.6,3.3,2.9,5.5,3.9
			c2.2,0.9,4.8,1.4,7.7,1.3c2.1,0,4.4-0.4,6.7-0.9c2-0.7,4.2-1.7,6.5-3.2c2.3-1.5,4.7-3.2,7.1-5.2c2.4-2,4.9-4.3,7.4-6.8
			c2.5-2.5,5-5.1,7.4-7.9c-1.1,2.6-2.2,5.2-3.1,7.6c-1,2.5-1.9,5-2.9,7.6c0,1.3,0.4,2.7,1.2,4c0.8,1.3,1.8,2.5,3.1,3.5
			c1.3,1,2.7,1.8,4.3,2.5c1.6,0.6,3.2,1,4.8,1c3.7-0.4,8-2,12.9-4.8c5-2.8,10.3-6.5,16-11.1c5.7-4.6,11.7-9.9,17.9-15.9
			c6.2-6,12.5-12.4,18.7-19.2c6.2-6.8,12.3-13.8,18.1-21.1c5.9-7.3,11.3-14.4,16.3-21.5c5-7,9.4-13.8,13.3-20.4
			c3.9-6.6,6.8-12.5,9-17.8C325.4,187.8,325,186.7,323.9,185.3z"/>
	</g>
</g>
<g id="Layer_3">
	<text transform="matrix(0.9881 -0.1539 0.1539 0.9881 284.3044 331.4422)" class="st1 st2 st3">h</text>
	<rect x="144" y="345" class="st1" width="236" height="7"/>
</g>
</svg>
