<?xml version="1.0" encoding="utf-8"?>
<!-- Generator: Adobe Illustrator 22.1.0, SVG Export Plug-In . SVG Version: 6.00 Build 0)  -->
<svg version="1.1" id="Layer_1" xmlns="http://www.w3.org/2000/svg" xmlns:xlink="http://www.w3.org/1999/xlink" x="0px" y="0px"
	 viewBox="0 0 209 207" style="enable-background:new 0 0 209 207;" xml:space="preserve">
<style type="text/css">
	.st0{fill:#EFEFEF;}
</style>
<g>
	
		<image style="overflow:visible;opacity:0.75;" width="100" height="116" xlink:href="2B462337.png"  transform="matrix(1 0 0 1 39 34)">
	</image>
	<g>
		<polygon class="st0" points="65,110.8 65,42 47,42 47,112.3 47,128 117,128 117,110.8 		"/>
	</g>
</g>
<g>
	
		<image style="overflow:visible;opacity:0.75;" width="109" height="146" xlink:href="2B462335.png"  transform="matrix(1 0 0 1 76 50)">
	</image>
	<g>
		<g>
			<path class="st0" d="M85,59c8,0,16.6-0.3,30.3-0.3c16.9,0,28.8,2.5,36.9,9c6.8,5.4,10.5,13.4,10.5,23.9
				c0,14.6-10.3,24.6-20.1,28.1v0.5c8,3.2,10.7,11.5,15.2,21.3c0.2,0.5,0.2,0.5,0.2,0.5l-19,10c-3-8-3.7-9.1-5-11
				c-8.1-12.1-9.3-12-19.7-12.2h-7.8v44.9L84,174L85,59z M106.5,110.2h10.2c12.9,0,20.5-6.4,20.5-16.4c0-10.5-7.1-15.7-19-15.9
				c-6.3,0-9.8,0.5-11.7,0.8V110.2z"/>
		</g>
	</g>
</g>
</svg>
